<?xml version="1.0" standalone="no"?>
<!DOCTYPE svg PUBLIC "-//W3C//DTD SVG 20010904//EN"
 "http://www.w3.org/TR/2001/REC-SVG-20010904/DTD/svg10.dtd">
<svg version="1.0" xmlns="http://www.w3.org/2000/svg"
 width="704.000000pt" height="208.000000pt" viewBox="0 0 704.000000 208.000000"
 preserveAspectRatio="xMidYMid meet">

<g transform="translate(0.000000,208.000000) scale(0.100000,-0.100000)"
fill="#000000" stroke="none">
<path d="M2519 2007 c-55 -60 -78 -97 -139 -224 l-73 -153 -43 0 c-40 0 -46
-4 -69 -39 -14 -21 -57 -60 -95 -86 -65 -45 -70 -51 -70 -85 0 -27 -10 -49
-36 -83 -20 -26 -39 -47 -43 -47 -3 0 -22 18 -42 41 -34 41 -37 42 -75 33 -32
-8 -40 -14 -42 -37 -3 -24 -16 -34 -94 -73 -102 -51 -102 -51 -46 59 l28 57
-22 30 c-20 28 -41 36 -107 43 -18 1 -26 -5 -33 -25 -16 -46 -127 -147 -177
-161 -30 -8 -53 -24 -74 -50 l-31 -37 -43 42 c-23 23 -44 40 -46 37 -2 -2 -14
-51 -26 -109 -13 -58 -26 -109 -28 -114 -3 -4 -34 20 -68 54 l-63 63 -33 -23
-32 -23 -111 26 c-72 18 -138 27 -188 27 l-76 0 18 71 c10 39 20 73 23 75 2 2
16 -18 30 -44 25 -46 28 -48 62 -44 32 4 36 7 31 26 -3 11 -15 69 -28 127
l-22 107 -25 -9 c-18 -7 -53 -50 -108 -134 -73 -109 -89 -128 -133 -150 -27
-14 -62 -25 -77 -26 -20 -1 -41 -16 -76 -55 -48 -51 -49 -54 -37 -88 10 -32 9
-38 -26 -87 l-38 -52 27 -165 c15 -91 26 -166 25 -167 -2 -2 -40 -21 -85 -44
l-83 -41 24 -63 c120 -314 124 -324 142 -331 13 -5 22 19 39 104 11 54 21 66
64 78 39 12 40 13 46 70 3 31 8 76 11 100 l5 42 74 0 74 0 37 -64 c34 -59 43
-67 103 -93 36 -15 68 -29 71 -31 4 -1 15 25 25 59 l19 61 70 -6 c135 -12 156
-17 156 -35 0 -30 61 -79 103 -83 38 -3 39 -4 73 -83 l35 -81 94 -47 95 -47
57 26 c51 22 62 24 94 14 31 -11 41 -9 78 10 40 20 42 23 27 39 -23 26 -21 28
34 36 40 6 56 3 78 -11 15 -10 64 -23 112 -30 l84 -11 71 52 c38 29 89 58 112
64 l42 12 3 95 3 96 53 20 53 20 51 -43 c36 -30 67 -46 107 -55 77 -19 77 -19
101 22 12 19 24 33 26 31 3 -3 34 -227 34 -249 0 -5 17 -8 39 -8 38 0 38 0 45
46 11 85 7 138 -26 288 -31 143 -34 150 -76 197 -44 49 -44 49 -61 28 -15 -19
-22 -20 -61 -12 -40 8 -45 12 -43 33 1 14 10 88 18 164 l17 139 63 106 63 106
6 109 c3 60 7 110 9 112 1 1 11 4 21 6 18 3 24 -15 60 -161 l41 -164 80 -54
c44 -29 83 -53 86 -53 4 0 -4 44 -18 97 -20 81 -33 109 -74 164 l-49 66 0 106
c0 81 -7 135 -30 237 -16 73 -30 134 -30 136 0 2 -16 6 -36 10 -28 5 -39 14
-49 38 -12 29 -11 34 22 78 36 50 37 65 5 105 l-17 21 -66 -71z"/>
<path d="M1040 1403 c-14 -9 -49 -34 -77 -56 -51 -38 -53 -41 -53 -89 l0 -49
33 3 c29 3 32 6 35 40 3 32 11 42 55 75 29 20 75 50 102 65 l50 28 -60 -1
c-38 0 -69 -6 -85 -16z"/>
<path d="M3590 791 l0 -351 95 0 95 0 0 104 0 104 103 4 c112 4 158 21 209 75
80 84 76 253 -8 337 -65 64 -91 70 -301 74 l-193 4 0 -351z m336 168 c34 -32
34 -100 -1 -134 -20 -21 -34 -25 -85 -25 l-60 0 0 88 c0 49 3 92 8 96 15 16
114 -2 138 -25z"/>
<path d="M4380 961 c-78 -25 -148 -90 -171 -157 -14 -44 -18 -131 -6 -185 12
-59 61 -123 119 -155 48 -26 62 -29 143 -29 105 1 152 20 207 85 41 48 60 104
60 180 0 114 -46 196 -136 242 -45 23 -171 34 -216 19z m140 -163 c40 -67 19
-210 -34 -224 -67 -16 -100 33 -94 142 4 86 22 114 75 114 27 0 37 -6 53 -32z"/>
<path d="M4969 956 c-66 -23 -109 -57 -139 -109 -77 -135 -35 -314 90 -382 49
-27 64 -30 140 -30 72 0 93 4 135 26 62 32 105 90 112 153 l6 46 -85 0 -84 0
-12 -33 c-23 -64 -98 -71 -129 -13 -23 42 -23 145 0 180 35 53 106 43 128 -18
l13 -36 83 0 83 0 0 33 c-1 77 -60 150 -149 182 -53 18 -143 19 -192 1z"/>
<path d="M5547 956 c-70 -25 -114 -62 -141 -119 -70 -142 -26 -310 96 -374 46
-24 65 -28 138 -28 72 0 93 4 135 26 62 32 105 90 112 153 l6 46 -85 0 -84 0
-12 -33 c-24 -68 -106 -70 -133 -4 -19 45 -16 140 5 171 34 53 105 43 127 -18
l13 -36 83 0 83 0 0 33 c-1 77 -60 150 -149 182 -53 18 -143 19 -194 1z"/>
<path d="M5970 700 l0 -260 90 0 90 0 69 138 70 137 0 -137 1 -138 90 0 90 0
0 260 0 260 -90 0 -90 0 -69 -137 -70 -138 0 138 -1 137 -90 0 -90 0 0 -260z"/>
<path d="M6665 936 c-130 -61 -155 -186 -54 -271 l33 -27 -47 -94 c-26 -52
-47 -96 -47 -99 0 -3 38 -5 85 -5 l85 0 42 85 c40 81 44 85 75 85 l33 0 0 -85
0 -85 85 0 85 0 0 260 0 260 -162 0 c-150 0 -167 -2 -213 -24z m205 -161 l0
-45 -51 0 c-62 0 -89 13 -89 45 0 32 24 44 88 45 l52 0 0 -45z"/>
<path d="M2580 750 c0 -20 151 -250 163 -250 7 0 19 4 27 10 20 13 2 44 -86
144 -83 95 -104 114 -104 96z"/>
</g>
</svg>
